<?xml version="1.0" encoding="UTF-8"?>
<svg version="1.1" xmlns="http://www.w3.org/2000/svg" width="686" height="153">
<path d="M0 0 C226.38 0 452.76 0 686 0 C686 50.49 686 100.98 686 153 C459.62 153 233.24 153 0 153 C0 102.51 0 52.02 0 0 Z " fill="#EFEFEF" transform="translate(0,0)"/>
<path d="M0 0 C9.0028125 -0.1546875 9.0028125 -0.1546875 18.1875 -0.3125 C20.05301514 -0.35802002 21.91853027 -0.40354004 23.84057617 -0.45043945 C35.83415404 -0.62067524 45.82503594 0.62467886 55.5625 8.375 C62.08417987 14.71819179 65.01871867 22.23082502 65.3125 31.3125 C65.09505702 40.64975752 62.47008924 48.17976475 56 55 C47.95772077 62.40583986 37.44420178 64.17185041 26.85546875 64.09765625 C25.83096619 64.09614563 25.83096619 64.09614563 24.7857666 64.09460449 C22.2529938 64.08940257 19.72024508 64.07544145 17.1875 64.0625 C11.515625 64.041875 5.84375 64.02125 0 64 C0 42.88 0 21.76 0 0 Z " fill="#9CCB43" transform="translate(316,24)"/>
<path d="M0 0 C0.02312269 11.19573244 0.04091471 22.39145924 0.05181217 33.58721066 C0.05704116 38.78528115 0.0641391 43.98333536 0.07543945 49.18139648 C0.08626776 54.19342268 0.09227671 59.20543318 0.09487724 64.21747017 C0.09673159 66.13412282 0.1003524 68.05077457 0.10573006 69.96742058 C0.11293975 72.64228072 0.11399097 75.31707514 0.11352539 77.99194336 C0.11712067 78.7925116 0.12071594 79.59307983 0.12442017 80.41790771 C0.11405216 85.88594784 0.11405216 85.88594784 -1 87 C-12.55 87 -24.1 87 -36 87 C-36 62.58 -36 38.16 -36 13 C-30.72 11.35 -25.44 9.7 -20 8 C-11.89143123 5.17486223 -11.89143123 5.17486223 -4.26171875 1.3515625 C-2 0 -2 0 0 0 Z " fill="#23488A" transform="translate(137,45)"/>
<path d="M0 0 C3.96 0 7.92 0 12 0 C14.77309635 3.12227597 16.15963339 5.3613986 18 9 C19.04575884 10.7081728 20.09256941 12.41581554 21.15936279 14.1109314 C22.70400241 16.56906092 24.20846161 19.05088028 25.71582031 21.53198242 C26.88929941 23.46100609 28.0695686 25.38577167 29.25 27.31054688 C29.99781181 28.53880933 30.74522296 29.76731584 31.4921875 30.99609375 C32.16620605 32.10138428 32.84022461 33.2066748 33.53466797 34.34545898 C35 37 35 37 35 39 C35.66 39 36.32 39 37 39 C37.26039063 38.12601563 37.52078125 37.25203125 37.7890625 36.3515625 C39.2022754 32.44015389 41.16480331 29.23986085 43.42114258 25.76293945 C45.72851285 22.16103151 47.79162357 18.5181891 49.73828125 14.70703125 C50.22570801 13.7958252 50.71313477 12.88461914 51.21533203 11.94580078 C52.18163547 10.13530389 53.11009008 8.3039886 53.99560547 6.45263672 C55.38671875 3.91796875 55.38671875 3.91796875 59 0 C63.29 0 67.58 0 72 0 C72 21.12 72 42.24 72 64 C67.38 64 62.76 64 58 64 C57.67 51.79 57.34 39.58 57 27 C55.02 30.63 53.04 34.26 51 38 C49.26485778 41.03148403 47.52142023 44.05272581 45.75 47.0625 C45.316875 47.80693359 44.88375 48.55136719 44.4375 49.31835938 C44.01984375 50.02927734 43.6021875 50.74019531 43.171875 51.47265625 C42.8015918 52.10437744 42.43130859 52.73609863 42.04980469 53.38696289 C40.17365727 56.26968522 39.20944186 56.95076458 35.79296875 57.75390625 C31.34320113 56.86945192 31.03638865 56.27241639 28.61328125 52.65234375 C27.48694121 50.7626989 26.38755489 48.85678542 25.3125 46.9375 C24.75755859 45.99455078 24.20261719 45.05160156 23.63085938 44.08007812 C22.06064903 41.40082504 20.52625853 38.70448258 19 36 C17.68 33.69 16.36 31.38 15 29 C14.67 40.55 14.34 52.1 14 64 C9.38 64 4.76 64 0 64 C0 42.88 0 21.76 0 0 Z " fill="#9CCB43" transform="translate(168,24)"/>
<path d="M0 0 C13 0 13 0 16.2890625 2.3515625 C17.49487305 3.91088867 17.49487305 3.91088867 18.625 5.625 C19.06046143 6.20677002 19.49592285 6.78854004 19.94458008 7.38793945 C20.8606989 8.61495165 21.76043151 9.85435525 22.64404297 11.10498047 C24.44150802 13.61703011 26.36137687 16.02002712 28.28857422 18.43310547 C29.60556964 20.08475104 30.90490549 21.74852145 32.19921875 23.41796875 C35.76215189 27.97474655 39.38654458 32.48318072 43 37 C43.33 24.79 43.66 12.58 44 0 C48.95 0 53.9 0 59 0 C59 21.12 59 42.24 59 64 C46 64 46 64 42.78125 61.46484375 C41.97906596 60.31715223 41.21969751 59.13863719 40.5 57.9375 C39.61548529 56.64902976 38.72595737 55.36398988 37.83203125 54.08203125 C37.37908691 53.41123535 36.92614258 52.74043945 36.45947266 52.04931641 C33.95154293 48.52781053 31.06399787 45.34669403 28.1875 42.125 C23.84614036 37.24163382 19.93990638 32.25320851 16 27 C15.67 39.21 15.34 51.42 15 64 C10.05 64 5.1 64 0 64 C0 42.88 0 21.76 0 0 Z " fill="#333333" transform="translate(477,24)"/>
<path d="M0 0 C0 23.76 0 47.52 0 72 C-11.55 72 -23.1 72 -35 72 C-36 71 -36 71 -36.12025452 68.41209412 C-36.11803391 67.25959671 -36.11581329 66.1070993 -36.11352539 64.91967773 C-36.11344986 63.61840439 -36.11337433 62.31713104 -36.11329651 60.97642517 C-36.10818909 59.54548098 -36.10297308 58.11453718 -36.09765625 56.68359375 C-36.09579203 55.2277074 -36.09436815 53.77182043 -36.09336853 52.31593323 C-36.08954365 48.47720621 -36.07971364 44.63851681 -36.06866455 40.79980469 C-36.05844978 36.88542184 -36.05387077 32.97103294 -36.04882812 29.05664062 C-36.03809134 21.37107657 -36.02101529 13.68554355 -36 6 C-34.41572621 5.67700773 -32.8311035 5.3557267 -31.24633789 5.03515625 C-30.36393936 4.85605713 -29.48154083 4.67695801 -28.57240295 4.49243164 C-25.20891054 3.84856281 -21.8367193 3.41069316 -18.4375 3 C-12.46063935 2.23776878 -5.9606347 0 0 0 Z " fill="#22478A" transform="translate(95,60)"/>
<path d="M0 0 C4.62 0.66 9.24 1.32 14 2 C17.97062659 2.26604704 21.90256064 2.49313479 25.875 2.625 C26.86113281 2.66367188 27.84726562 2.70234375 28.86328125 2.7421875 C31.24202565 2.83456592 33.62079669 2.92049932 36 3 C36.02312659 11.45767334 36.0409167 19.91533356 36.05181217 28.37303066 C36.05704031 32.29988658 36.06413669 36.22672094 36.07543945 40.15356445 C36.0862708 43.94014257 36.09227736 47.7266999 36.09487724 51.51329231 C36.09673105 52.96104319 36.10035081 54.40879288 36.10573006 55.85653496 C36.11294367 57.87757135 36.11340808 59.89862848 36.11352539 61.91967773 C36.115746 63.07217514 36.11796661 64.22467255 36.12025452 65.41209412 C36 68 36 68 35 69 C32.40665852 69.0885067 29.83937421 69.1153317 27.24609375 69.09765625 C26.55906372 69.09664917 25.87203369 69.09564209 25.16418457 69.09460449 C22.58860616 69.08935776 20.01305147 69.07539659 17.4375 69.0625 C11.683125 69.041875 5.92875 69.02125 0 69 C0 46.23 0 23.46 0 0 Z " fill="#24498B" transform="translate(18,63)"/>
<path d="M0 0 C4.95 0 9.9 0 15 0 C15.33 9.24 15.66 18.48 16 28 C20.60716282 23.39283718 24.86893207 19.04874591 29.0625 14.15625 C32.20996648 10.65342441 35.5915932 7.3894725 38.9609375 4.1015625 C41.04126091 2.16903954 41.04126091 2.16903954 42 0 C47.61 0 53.22 0 59 0 C54.98979665 5.79251595 50.49219001 10.6381407 45.48242188 15.54882812 C41.43790415 19.52230037 37.63630126 23.64668159 34 28 C37.72043881 34.07514693 42.02532806 39.5060635 46.66455078 44.89233398 C50.12414097 48.9242005 53.44728792 53.0398329 56.6875 57.25 C57.1215918 57.81106445 57.55568359 58.37212891 58.00292969 58.95019531 C61 62.87207589 61 62.87207589 61 64 C46.07560826 66.06872757 46.07560826 66.06872757 41.19677734 62.78710938 C37.94696388 59.55255325 35.54629799 55.74672466 33.16845703 51.84765625 C31.42941271 49.09774246 29.38249749 46.63059697 27.3125 44.125 C26.66925781 43.32320312 26.02601563 42.52140625 25.36328125 41.6953125 C24.91339844 41.13585937 24.46351563 40.57640625 24 40 C22.85373678 40.97866338 21.70800212 41.95794587 20.5625 42.9375 C19.92441406 43.48277344 19.28632812 44.02804688 18.62890625 44.58984375 C15.92555911 46.77841873 15.92555911 46.77841873 15.68359375 50.81640625 C15.59682952 52.39818499 15.51502431 53.98024149 15.4375 55.5625 C15.39431641 56.36880859 15.35113281 57.17511719 15.30664062 58.00585938 C15.20024738 60.00368805 15.09959112 62.0018207 15 64 C10.05 64 5.1 64 0 64 C0 42.88 0 21.76 0 0 Z " fill="#333333" transform="translate(551,24)"/>
<path d="M0 0 C16.17 0 32.34 0 49 0 C49 3.96 49 7.92 49 12 C37.78 12 26.56 12 15 12 C15 16.62 15 21.24 15 26 C24.57 26 34.14 26 44 26 C44 29.63 44 33.26 44 37 C34.43 37 24.86 37 15 37 C15 41.95 15 46.9 15 52 C26.55 52 38.1 52 50 52 C50 55.96 50 59.92 50 64 C33.5 64 17 64 0 64 C0 42.88 0 21.76 0 0 Z " fill="#9BCA42" transform="translate(255,24)"/>
<path d="M0 0 C4.95 0 9.9 0 15 0 C15 17.16 15 34.32 15 52 C25.56 52 36.12 52 47 52 C47 55.96 47 59.92 47 64 C31.49 64 15.98 64 0 64 C0 42.88 0 21.76 0 0 Z " fill="#343434" transform="translate(392,24)"/>
<path d="M0 0 C11.88 0 23.76 0 36 0 C36 12.54 36 25.08 36 38 C31.545 38.0928125 31.545 38.0928125 27 38.1875 C26.10152344 38.21481201 25.20304687 38.24212402 24.27734375 38.27026367 C15.60615873 38.35440601 9.02524774 36.69223395 0 35 C0 23.45 0 11.9 0 0 Z " fill="#9CCB43" transform="translate(18,24)"/>
<path d="M0 0 C11.88 0 23.76 0 36 0 C36 10.56 36 21.12 36 32 C23.52941176 35.40106952 23.52941176 35.40106952 16.875 36.1875 C15.59367187 36.34605469 14.31234375 36.50460938 12.9921875 36.66796875 C8.67495038 37.02703446 4.33214318 37 0 37 C0 24.79 0 12.58 0 0 Z " fill="#9BCB41" transform="translate(59,24)"/>
<path d="M0 0 C22.63013699 0 22.63013699 0 29 5 C33.17247626 9.17247626 34.83263326 12.95812578 35.3125 18.8125 C35.15376363 24.42118524 33.15146855 28.88897433 30.5 33.75 C21.77973517 41.59823834 11.42349698 40 0 40 C0 26.8 0 13.6 0 0 Z " fill="#EEEFEB" transform="translate(331,36)"/>
<path d="M0 0 C4.62 0 9.24 0 14 0 C14 5.28 14 10.56 14 16 C19.28 16 24.56 16 30 16 C30 20.62 30 25.24 30 30 C24.72 30 19.44 30 14 30 C14 35.28 14 40.56 14 46 C9.38 46 4.76 46 0 46 C0 40.72 0 35.44 0 30 C-5.28 30 -10.56 30 -16 30 C-16 25.38 -16 20.76 -16 16 C-10.72 16 -5.44 16 0 16 C0 10.72 0 5.44 0 0 Z " fill="#9BCA40" transform="translate(625,33)"/>
<path d="M0 0 C4.95 0 9.9 0 15 0 C15 21.12 15 42.24 15 64 C10.05 64 5.1 64 0 64 C0 42.88 0 21.76 0 0 Z " fill="#323232" transform="translate(447,24)"/>
<path d="M0 0 C11.88 0 23.76 0 36 0 C36 5.28 36 10.56 36 16 C27.67999068 20.34739226 19.54736867 24.38834425 10.6875 27.5 C9.96506104 27.75475098 9.24262207 28.00950195 8.49829102 28.27197266 C5.54475469 29.27630873 3.1410113 30 0 30 C0 20.1 0 10.2 0 0 Z " fill="#9BCB42" transform="translate(101,24)"/>
<path d="M0 0 C0.33 0 0.66 0 1 0 C1 18.15 1 36.3 1 55 C4.63 55 8.26 55 12 55 C12 54.34 12 53.68 12 53 C11.01 53 10.02 53 9 53 C9 49.04 9 45.08 9 41 C11.93814003 42.46907001 12.3286226 44.59447806 13.625 47.5625 C14.07101563 48.57441406 14.51703125 49.58632812 14.9765625 50.62890625 C15.31429687 51.41136719 15.65203125 52.19382813 16 53 C18.07535607 50.35971892 19.72678097 47.77217731 21.1875 44.75 C21.53167969 44.04359375 21.87585938 43.3371875 22.23046875 42.609375 C22.48441406 42.07828125 22.73835938 41.5471875 23 41 C23.33 41 23.66 41 24 41 C24 44.96 24 48.92 24 53 C26.97 53.66 29.94 54.32 33 55 C33.495 54.01 33.495 54.01 34 53 C34.495 60.92 34.495 60.92 35 69 C23.45 69 11.9 69 0 69 C0 46.23 0 23.46 0 0 Z " fill="#214789" transform="translate(18,63)"/>
<path d="M0 0 C2.701875 -0.061875 5.40375 -0.12375 8.1875 -0.1875 C9.02949951 -0.21481201 9.87149902 -0.24212402 10.73901367 -0.27026367 C15.34045334 -0.32112946 18.24724015 0.04886938 22 3 C24.5940636 6.02640753 25.23362622 8.17674616 24.9375 12.0625 C24.31900177 15.78051778 23.02791481 17.65580789 20 20 C21.25756667 23.48249231 22.7731892 26.06465849 25 29 C25 29.66 25 30.32 25 31 C22.66796875 31.27734375 22.66796875 31.27734375 20 31 C18.55078125 29.06640625 18.55078125 29.06640625 17.3125 26.5625 C15.14468799 22.90452658 15.14468799 22.90452658 11.39453125 21.1796875 C8.3203348 20.86408207 8.3203348 20.86408207 4 21 C4 24.3 4 27.6 4 31 C2.68 31 1.36 31 0 31 C0 20.77 0 10.54 0 0 Z " fill="#2B5393" transform="translate(440,101)"/>
<path d="M0 0 C1.65 0 3.3 0 5 0 C19 27.68020305 19 27.68020305 19 31 C17.35 31 15.7 31 14 31 C11 25.25 11 25.25 11 23 C5.39 23 -0.22 23 -6 23 C-6.66 25.31 -7.32 27.62 -8 30 C-9.65 30.33 -11.3 30.66 -13 31 C-10.78157548 23.87303484 -7.95177996 17.20419332 -4.8125 10.4375 C-4.34908203 9.42880859 -3.88566406 8.42011719 -3.40820312 7.38085938 C-2.27627662 4.9186275 -1.1401475 2.45843306 0 0 Z " fill="#2C5392" transform="translate(413,101)"/>
<path d="M0 0 C1.2065625 0.0309375 1.2065625 0.0309375 2.4375 0.0625 C3.21673828 1.82013672 3.21673828 1.82013672 4.01171875 3.61328125 C4.7161134 5.20053523 5.4205428 6.78777379 6.125 8.375 C6.48787109 9.19355469 6.85074219 10.01210937 7.22460938 10.85546875 C9.63897368 16.29314892 12.09801322 21.70727818 14.625 27.09375 C15.4375 29.0625 15.4375 29.0625 15.4375 31.0625 C13.0625 30.8125 13.0625 30.8125 10.4375 30.0625 C8.6433242 27.49939172 8.4375 26.23130694 8.4375 23.0625 C2.4975 23.0625 -3.4425 23.0625 -9.5625 23.0625 C-9.8925 24.7125 -10.2225 26.3625 -10.5625 28.0625 C-10.8925 29.0525 -11.2225 30.0425 -11.5625 31.0625 C-13.2125 31.0625 -14.8625 31.0625 -16.5625 31.0625 C-15.43895611 26.56832445 -14.00182635 22.71798221 -11.84375 18.58984375 C-9.75765183 14.4748879 -7.85897202 10.27166183 -5.93676758 6.078125 C-3.16469508 0.07718768 -3.16469508 0.07718768 0 0 Z " fill="#244E8F" transform="translate(250.5625,100.9375)"/>
<path d="M0 0 C1.65 0 3.3 0 5 0 C5 4.29 5 8.58 5 13 C10.61 13 16.22 13 22 13 C22 8.71 22 4.42 22 0 C23.65 0 25.3 0 27 0 C27 10.23 27 20.46 27 31 C25.35 31 23.7 31 22 31 C22 26.38 22 21.76 22 17 C16.39 17 10.78 17 5 17 C5 21.62 5 26.24 5 31 C3.35 31 1.7 31 0 31 C0 20.77 0 10.54 0 0 Z " fill="#3F629B" transform="translate(330,101)"/>
<path d="M0 0 C7.26 0 14.52 0 22 0 C22 1.32 22 2.64 22 4 C16.39 4 10.78 4 5 4 C5 6.97 5 9.94 5 13 C9.95 13 14.9 13 20 13 C20 14.32 20 15.64 20 17 C15.05 17 10.1 17 5 17 C5 20.3 5 23.6 5 27 C10.94 27 16.88 27 23 27 C23 28.32 23 29.64 23 31 C15.41 31 7.82 31 0 31 C0 20.77 0 10.54 0 0 Z " fill="#1B478E" transform="translate(475,101)"/>
<path d="M0 0 C1.65 0 3.3 0 5 0 C5 4.29 5 8.58 5 13 C10.94 13 16.88 13 23 13 C23 8.71 23 4.42 23 0 C24.32 0 25.64 0 27 0 C27 10.23 27 20.46 27 31 C25.68 31 24.36 31 23 31 C23 26.38 23 21.76 23 17 C17.06 17 11.12 17 5 17 C5 21.62 5 26.24 5 31 C3.35 31 1.7 31 0 31 C0 20.77 0 10.54 0 0 Z " fill="#49699A" transform="translate(166,101)"/>
<path d="M0 0 C6.93 0 13.86 0 21 0 C21 1.32 21 2.64 21 4 C15.39 4 9.78 4 4 4 C4 6.97 4 9.94 4 13 C9.28 13 14.56 13 20 13 C20 14.32 20 15.64 20 17 C14.72 17 9.44 17 4 17 C4 20.3 4 23.6 4 27 C9.94 27 15.88 27 22 27 C22 28.32 22 29.64 22 31 C14.74 31 7.48 31 0 31 C0 20.77 0 10.54 0 0 Z " fill="#2E5493" transform="translate(206,101)"/>
<path d="M0 0 C1.010625 -0.00773437 2.02125 -0.01546875 3.0625 -0.0234375 C6.41717525 0.43158494 8.3411502 1.292886 11 3.375 C11 4.365 11 5.355 11 6.375 C10.01 6.87 10.01 6.87 9 7.375 C8.01 6.715 7.02 6.055 6 5.375 C3.62244051 5.0581783 3.62244051 5.0581783 1.0625 5.125 C0.20785156 5.11984375 -0.64679688 5.1146875 -1.52734375 5.109375 C-4.21416193 5.39800634 -5.77048505 5.85334401 -8 7.375 C-10.67655961 11.40688756 -10.70061487 15.69589354 -10 20.375 C-8.20606332 23.24529869 -7.01736724 24.86631638 -4 26.375 C0.85651888 26.60999285 3.7103513 26.67302609 8 24.375 C10.25 24.75 10.25 24.75 12 25.375 C11 28.375 11 28.375 9.125 30.0625 C4.43113571 32.033923 0.01772085 32.05287124 -5 31.375 C-8.5 29.5625 -8.5 29.5625 -11 27.375 C-11.5775 26.900625 -12.155 26.42625 -12.75 25.9375 C-15.73037738 22.21202828 -16.50859955 18.24396863 -16.3828125 13.5 C-15.49036434 8.54600206 -12.68768178 4.627151 -8.69921875 1.66796875 C-5.57995617 0.17379232 -3.44501889 -0.02636494 0 0 Z " fill="#2D5492" transform="translate(383,100.625)"/>
<path d="M0 0 C8.58 0 17.16 0 26 0 C26 1.32 26 2.64 26 4 C22.7 4 19.4 4 16 4 C16 12.91 16 21.82 16 31 C14.35 31 12.7 31 11 31 C11 22.09 11 13.18 11 4 C7.37 4 3.74 4 0 4 C0 2.68 0 1.36 0 0 Z " fill="#4567A2" transform="translate(296,101)"/>
<path d="M0 0 C2.31 0 4.62 0 7 0 C8.98 3.96 10.96 7.92 13 12 C14.98 8.04 16.96 4.08 19 0 C21.31 0 23.62 0 26 0 C25.34 0.66 24.68 1.32 24 2 C23.80150929 4.54535141 23.72148225 6.95716759 23.75 9.5 C23.74226563 10.18964844 23.73453125 10.87929687 23.7265625 11.58984375 C23.6238695 15.75214386 23.6238695 15.75214386 26 19 C23.03 19 20.06 19 17 19 C17.66 18.67 18.32 18.34 19 18 C18.67 14.37 18.34 10.74 18 7 C16.02 10.96 14.04 14.92 12 19 C8.24482091 15.24482091 7.04956424 11.87654941 5 7 C4.67 10.63 4.34 14.26 4 18 C4.66 18.33 5.32 18.66 6 19 C4.02 19 2.04 19 0 19 C0.33 18.34 0.66 17.68 1 17 C1.2322646 14.28737884 1.41936235 11.59226874 1.5625 8.875 C1.60568359 8.12089844 1.64886719 7.36679688 1.69335938 6.58984375 C1.7994832 4.72678112 1.90025001 2.86341476 2 1 C1.34 0.67 0.68 0.34 0 0 Z " fill="#D5DDE7" transform="translate(23,98)"/>
<path d="M0 0 C1.65 0 3.3 0 5 0 C5 8.91 5 17.82 5 27 C10.61 27 16.22 27 22 27 C22 28.32 22 29.64 22 31 C14.74 31 7.48 31 0 31 C0 20.77 0 10.54 0 0 Z " fill="#3B609A" transform="translate(274,101)"/>
<path d="M0 0 C1.8975 -0.061875 3.795 -0.12375 5.75 -0.1875 C7.35101563 -0.23970703 7.35101563 -0.23970703 8.984375 -0.29296875 C12.34503863 0.03352059 13.67828434 0.57854477 16 3 C16.74242424 8.93939394 16.74242424 8.93939394 14.6875 11.875 C11.43097457 14.04601695 8.60229566 14.11171813 4.8125 14.0625 C3.224375 14.041875 1.63625 14.02125 0 14 C0 9.38 0 4.76 0 0 Z " fill="#E4E7EC" transform="translate(444,105)"/>
<path d="M0 0 C2.97 0 5.94 0 9 0 C8.01 0.495 8.01 0.495 7 1 C7 3.31 7 5.62 7 8 C9.64 8 12.28 8 15 8 C14.34 5.36 13.68 2.72 13 0 C15.64 0 18.28 0 21 0 C20.01 0.495 20.01 0.495 19 1 C19 6.61 19 12.22 19 18 C19.66 18.33 20.32 18.66 21 19 C18.36 19 15.72 19 13 19 C13.66 16.03 14.32 13.06 15 10 C12.36 10 9.72 10 7 10 C7 12.64 7 15.28 7 18 C7.66 18.33 8.32 18.66 9 19 C6.03 19 3.06 19 0 19 C0.66 18.67 1.32 18.34 2 18 C2 12.39 2 6.78 2 1 C1.34 0.67 0.68 0.34 0 0 Z " fill="#C6CEDB" transform="translate(108,98)"/>
<path d="M0 0 C7.26 0 14.52 0 22 0 C22 1.32 22 2.64 22 4 C16.39 4 10.78 4 5 4 C5 6.97 5 9.94 5 13 C3.68 13 2.36 13 1 13 C1 18.61 1 24.22 1 30 C8.26 30 15.52 30 23 30 C23 30.33 23 30.66 23 31 C15.41 31 7.82 31 0 31 C0 20.77 0 10.54 0 0 Z " fill="#40649C" transform="translate(475,101)"/>
<path d="M0 0 C0.33 0 0.66 0 1 0 C1 9.9 1 19.8 1 30 C10.51766416 26.85129823 10.51766416 26.85129823 19.875 23.375 C23.88510076 21.79709068 27.90168634 20.33348116 32 19 C32.66 20.32 33.32 21.64 34 23 C27.33333333 25.66666667 20.66666667 28.33333333 14 31 C13.26031982 31.41137207 12.52063965 31.82274414 11.75854492 32.24658203 C9 33 9 33 0 31 C0 20.77 0 10.54 0 0 Z " fill="#E2EADD" transform="translate(100,24)"/>
<path d="M0 0 C2.64 0.33 5.28 0.66 8 1 C8 1.66 8 2.32 8 3 C6.68 3 5.36 3 4 3 C4 7.95 4 12.9 4 18 C7.3 18 10.6 18 14 18 C14 18.99 14 19.98 14 21 C10.7 21 7.4 21 4 21 C4 24.3 4 27.6 4 31 C2.68 31 1.36 31 0 31 C0 20.77 0 10.54 0 0 Z " fill="#1A4689" transform="translate(440,101)"/>
<path d="M0 0 C1.32 0 2.64 0 4 0 C4 10.23 4 20.46 4 31 C2.68 31 1.36 31 0 31 C-0.33 26.38 -0.66 21.76 -1 17 C-5.95 16.67 -10.9 16.34 -16 16 C-16 15.34 -16 14.68 -16 14 C-10.72 14 -5.44 14 0 14 C0 9.38 0 4.76 0 0 Z " fill="#1A4891" transform="translate(189,101)"/>
<path d="M0 0 C0.66 0 1.32 0 2 0 C2.125 5.75 2.125 5.75 1 8 C3.27076842 8.02699725 5.54162821 8.04639453 7.8125 8.0625 C9.70935547 8.07990234 9.70935547 8.07990234 11.64453125 8.09765625 C14.99605237 8.16159116 14.99605237 8.16159116 18 7 C18 7.99 18 8.98 18 10 C14.69005287 11.65497356 11.00877 11.10084335 7.375 11.0625 C6.17230469 11.05573242 6.17230469 11.05573242 4.9453125 11.04882812 C2.96350994 11.03703168 0.98174567 11.01909605 -1 11 C-1.66 13.31 -2.32 15.62 -3 18 C-4.65 18.33 -6.3 18.66 -8 19 C-6.00386732 12.2813095 -3.2708579 6.19265192 0 0 Z " fill="#28508F" transform="translate(408,113)"/>
<path d="M0 0 C0 0.99 0 1.98 0 3 C-8.66875541 5.03895283 -17.10115016 6.52735047 -26 7 C-26 6.34 -26 5.68 -26 5 C-28.64 4.67 -31.28 4.34 -34 4 C-34 3.67 -34 3.34 -34 3 C-33.25838623 2.91435791 -32.51677246 2.82871582 -31.75268555 2.74047852 C-28.39723147 2.35111649 -25.04236938 1.95686682 -21.6875 1.5625 C-20.52025391 1.42779297 -19.35300781 1.29308594 -18.15039062 1.15429688 C-17.03212891 1.02216797 -15.91386719 0.89003906 -14.76171875 0.75390625 C-13.2142395 0.57323608 -13.2142395 0.57323608 -11.63549805 0.38891602 C-3.82116205 -0.76423241 -3.82116205 -0.76423241 0 0 Z " fill="#E2EADC" transform="translate(93,58)"/>
<path d="M0 0 C9.57 0.66 19.14 1.32 29 2 C29 3.32 29 4.64 29 6 C7.46808511 6.38297872 7.46808511 6.38297872 -3 4 C-3 3.67 -3 3.34 -3 3 C-1.02 3 0.96 3 3 3 C3 2.34 3 1.68 3 1 C2.01 0.67 1.02 0.34 0 0 Z " fill="#E7EBEB" transform="translate(23,60)"/>
<path d="M0 0 C2.97 0 5.94 0 9 0 C8.01 0.495 8.01 0.495 7 1 C7 6.28 7 11.56 7 17 C10.96 16.505 10.96 16.505 15 16 C15 16.99 15 17.98 15 19 C10.71 19 6.42 19 2 19 C2.495 10.09 2.495 10.09 3 1 C2.01 0.67 1.02 0.34 0 0 Z " fill="#DFE4EB" transform="translate(69,98)"/>
<path d="M0 0 C0.66 0 1.32 0 2 0 C2.83764268 1.95649397 3.66999059 3.91525556 4.5 5.875 C4.9640625 6.96554688 5.428125 8.05609375 5.90625 9.1796875 C7 12 7 12 7 14 C3.04 14 -0.92 14 -5 14 C-1.85714286 4.42857143 -1.85714286 4.42857143 0 0 Z " fill="#E0E4EA" transform="translate(249,106)"/>
<path d="M0 0 C2.6477341 1.32386705 2.9407438 2.63257209 4.125 5.3125 C4.47820312 6.09238281 4.83140625 6.87226562 5.1953125 7.67578125 C6 10 6 10 6 14 C2.37 14 -1.26 14 -5 14 C-4.46515599 8.65155992 -2.53309233 4.64203897 0 0 Z " fill="#E3E8EC" transform="translate(415,106)"/>
<path d="M0 0 C0.99 0 1.98 0 3 0 C3 3.96 3 7.92 3 12 C2.34 12 1.68 12 1 12 C1 13.32 1 14.64 1 16 C1.99 16 2.98 16 4 16 C4 20.29 4 24.58 4 29 C2.68 29 1.36 29 0 29 C0 19.43 0 9.86 0 0 Z " fill="#1C488E" transform="translate(167,102)"/>
<path d="M0 0 C0.99 0 1.98 0 3 0 C3 9.9 3 19.8 3 30 C2.01 30 1.02 30 0 30 C0 20.1 0 10.2 0 0 Z " fill="#1C488E" transform="translate(353,101)"/>
<path d="M0 0 C0.66 0 1.32 0 2 0 C2.33 2.97 2.66 5.94 3 9 C8.94 9 14.88 9 21 9 C21 9.99 21 10.98 21 12 C14.07 12 7.14 12 0 12 C0 8.04 0 4.08 0 0 Z " fill="#1A468F" transform="translate(207,119)"/>
<path d="M0 0 C2.44814179 3.0296652 4.09452853 6.07549599 5.6875 9.625 C6.12449219 10.58664063 6.56148438 11.54828125 7.01171875 12.5390625 C8 15 8 15 8 17 C6.35 17 4.7 17 3 17 C0 11.375 0 11.375 0 8 C0.66 8 1.32 8 2 8 C2 7.01 2 6.02 2 5 C1.34 5 0.68 5 0 5 C0 3.35 0 1.7 0 0 Z M-3 3 C-2.01 3.99 -1.02 4.98 0 6 C-3.42689636 7.14229879 -5.61102218 6.90861076 -9.1875 6.5625 C-10.81751953 6.40974609 -10.81751953 6.40974609 -12.48046875 6.25390625 C-13.72763672 6.12822266 -13.72763672 6.12822266 -15 6 C-14.67 5.34 -14.34 4.68 -14 4 C-10.37 4.33 -6.74 4.66 -3 5 C-3 4.34 -3 3.68 -3 3 Z " fill="#3F649A" transform="translate(424,115)"/>
<path d="M0 0 C1.32 0 2.64 0 4 0 C4 10.23 4 20.46 4 31 C2.68 31 1.36 31 0 31 C0 26.38 0 21.76 0 17 C0.66 17 1.32 17 2 17 C2.33 11.72 2.66 6.44 3 1 C2.01 0.67 1.02 0.34 0 0 Z " fill="#274B89" transform="translate(189,101)"/>
<path d="M0 0 C0.33 0.66 0.66 1.32 1 2 C3.02463255 2.65213292 3.02463255 2.65213292 5 3 C4.34 3 3.68 3 3 3 C2.9175 3.639375 2.835 4.27875 2.75 4.9375 C1.69745162 9.23540589 -0.14215131 12.9846496 -2 17 C4.435 16.505 4.435 16.505 11 16 C11 16.66 11 17.32 11 18 C6.38 18 1.76 18 -3 18 C-3.33 17.01 -3.66 16.02 -4 15 C-4.66 14.67 -5.32 14.34 -6 14 C-4.02 9.38 -2.04 4.76 0 0 Z " fill="#385C96" transform="translate(246,103)"/>
<path d="M0 0 C0.03738281 0.59167969 0.07476562 1.18335937 0.11328125 1.79296875 C0.52093883 6.69285299 1.19397011 9.85195582 4 14 C4 14.99 4 15.98 4 17 C-1.56732224 15.66868381 -1.56732224 15.66868381 -3.375 12.875 C-4.20925463 9.03742869 -4.32240483 5.9333389 -4 2 C-1 0 -1 0 0 0 Z " fill="#28508E" transform="translate(371,110)"/>
<path d="M0 0 C0.33 0 0.66 0 1 0 C1.75363052 3.35091771 2.11979937 6.43109812 2.09765625 9.86328125 C2.09282227 11.19262695 2.09282227 11.19262695 2.08789062 12.54882812 C2.07951172 13.46083984 2.07113281 14.37285156 2.0625 15.3125 C2.05798828 16.24384766 2.05347656 17.17519531 2.04882812 18.13476562 C2.03709234 20.42324373 2.02067363 22.71158808 2 25 C1.01 25 0.02 25 -1 25 C-1.02917228 21.77085248 -1.04685663 18.54173917 -1.0625 15.3125 C-1.07087891 14.40048828 -1.07925781 13.48847656 -1.08789062 12.54882812 C-1.09111328 11.66259766 -1.09433594 10.77636719 -1.09765625 9.86328125 C-1.10289307 9.05157471 -1.10812988 8.23986816 -1.11352539 7.40356445 C-0.9929791 4.85135327 -0.559949 2.48973863 0 0 Z " fill="#1A488E" transform="translate(309,106)"/>
<path d="M0 0 C2.97 0 5.94 0 9 0 C8.34 0.66 7.68 1.32 7 2 C6.6936141 4.73434962 6.4886664 7.38279821 6.375 10.125 C6.33632812 10.87910156 6.29765625 11.63320312 6.2578125 12.41015625 C6.16348969 14.27303184 6.08065338 16.13648255 6 18 C5.01 18 4.02 18 3 18 C2.92652344 16.30230469 2.92652344 16.30230469 2.8515625 14.5703125 C2.77653486 13.08851661 2.70098703 11.606747 2.625 10.125 C2.57859375 9.00544922 2.57859375 9.00544922 2.53125 7.86328125 C2.44356169 3.46526812 2.44356169 3.46526812 0 0 Z " fill="#E5EAED" transform="translate(108,98)"/>
<path d="M0 0 C0.33 0 0.66 0 1 0 C1 3.96 1 7.92 1 12 C3.31 12.33 5.62 12.66 8 13 C8 13.33 8 13.66 8 14 C4.7 14 1.4 14 -2 14 C-2 13.34 -2 12.68 -2 12 C-2.99 12.66 -3.98 13.32 -5 14 C-5.99 14 -6.98 14 -8 14 C-7 12 -7 12 -5.6875 10.375 C-3.37285572 7.11735249 -1.72051619 3.5982369 0 0 Z " fill="#2E4E89" transform="translate(41,104)"/>
<path d="M0 0 C4.95 0 9.9 0 15 0 C15 1.32 15 2.64 15 4 C10.05 4 5.1 4 0 4 C0 2.68 0 1.36 0 0 Z " fill="#2D5392" transform="translate(480,114)"/>
<path d="M0 0 C1.46513058 0.01988865 2.93011492 0.05558907 4.39453125 0.10546875 C5.14412109 0.11900391 5.89371094 0.13253906 6.66601562 0.14648438 C8.51332892 0.18178336 10.36027191 0.23558958 12.20703125 0.29296875 C12.20703125 1.28296875 12.20703125 2.27296875 12.20703125 3.29296875 C5.93703125 3.29296875 -0.33296875 3.29296875 -6.79296875 3.29296875 C-3.79296875 0.29296875 -3.79296875 0.29296875 0 0 Z " fill="#1A468F" transform="translate(282.79296875,127.70703125)"/>
<path d="M0 0 C1.65 0 3.3 0 5 0 C8 6.5 8 6.5 8 11 C6.68 10.67 5.36 10.34 4 10 C3.67 8.02 3.34 6.04 3 4 C1.68 4 0.36 4 -1 4 C-0.67 2.68 -0.34 1.36 0 0 Z " fill="#27508D" transform="translate(248,101)"/>
<path d="M0 0 C1.33895632 1.66215268 2.67130142 3.32963607 4 5 C4.5775 5.721875 5.155 6.44375 5.75 7.1875 C7 9 7 9 7 11 C4.75 11.375 4.75 11.375 2 11 C-0.375 8.25 -0.375 8.25 -2 5 C-1.81353683 2.70028762 -1.62542316 1.62542316 0 0 Z " fill="#365B96" transform="translate(458,121)"/>
<path d="M0 0 C8.25 0 16.5 0 25 0 C25 0.33 25 0.66 25 1 C20.38 1 15.76 1 11 1 C11 1.66 11 2.32 11 3 C7.37 3 3.74 3 0 3 C0 2.01 0 1.02 0 0 Z " fill="#1F488C" transform="translate(297,101)"/>
<path d="M0 0 C1.32 1.32 2.64 2.64 4 4 C3.01 4.33 2.02 4.66 1 5 C1 15.56 1 26.12 1 37 C0.67 37 0.34 37 0 37 C0 24.79 0 12.58 0 0 Z " fill="#E8E8E8" transform="translate(492,50)"/>
<path d="M0 0 C3.65316671 1.24976756 4.78065836 1.67098753 7 5 C6.01 5.66 5.02 6.32 4 7 C3.01 6.34 2.02 5.68 1 5 C-1.74518321 4.75812349 -1.74518321 4.75812349 -4.6875 4.875 C-5.68136719 4.89304687 -6.67523438 4.91109375 -7.69921875 4.9296875 C-8.45847656 4.95289062 -9.21773438 4.97609375 -10 5 C-10 4.34 -10 3.68 -10 3 C-9.36191406 2.95101562 -8.72382813 2.90203125 -8.06640625 2.8515625 C-7.24011719 2.77679688 -6.41382813 2.70203125 -5.5625 2.625 C-4.73878906 2.55539063 -3.91507812 2.48578125 -3.06640625 2.4140625 C-2.38449219 2.27742188 -1.70257813 2.14078125 -1 2 C-0.67 1.34 -0.34 0.68 0 0 Z " fill="#385D95" transform="translate(388,101)"/>
<path d="M0 0 C3 1 3 1 4.25 3.25 C5.07700926 6.28236729 4.85394079 8.01120724 4 11 C1.66666177 8.87878343 0.0851114 6.98405635 -1 4 C-0.625 1.75 -0.625 1.75 0 0 Z " fill="#E1E6EB" transform="translate(31,106)"/>
<path d="M0 0 C0.66 0 1.32 0 2 0 C2 4.29 2 8.58 2 13 C1.01 13 0.02 13 -1 13 C-1.02696365 11.20841511 -1.04637917 9.41671527 -1.0625 7.625 C-1.07410156 6.62726563 -1.08570313 5.62953125 -1.09765625 4.6015625 C-1 2 -1 2 0 0 Z " fill="#1B488F" transform="translate(332,118)"/>
<path d="M0 0 C3.63 0.33 7.26 0.66 11 1 C11 1.66 11 2.32 11 3 C10.01 3 9.02 3 8 3 C8 3.66 8 4.32 8 5 C4.37 4.67 0.74 4.34 -3 4 C-3 3.67 -3 3.34 -3 3 C-1.02 3 0.96 3 3 3 C3 2.34 3 1.68 3 1 C2.01 0.67 1.02 0.34 0 0 Z " fill="#E0E8E1" transform="translate(23,60)"/>
<path d="M0 0 C1.2375 0.350625 2.475 0.70125 3.75 1.0625 C4.8225 1.371875 5.895 1.68125 7 2 C7 2.33 7 2.66 7 3 C1.06 3.495 1.06 3.495 -5 4 C-5 3.34 -5 2.68 -5 2 C-7.64 1.67 -10.28 1.34 -13 1 C-13 0.67 -13 0.34 -13 0 C-11.58456585 -0.19658808 -10.16755969 -0.38187546 -8.75 -0.5625 C-7.96109375 -0.66691406 -7.1721875 -0.77132812 -6.359375 -0.87890625 C-3.95155926 -1.0024862 -2.29108753 -0.70210747 0 0 Z " fill="#DAE3D3" transform="translate(72,61)"/>
<path d="M0 0 C2.0625 0.4375 2.0625 0.4375 4 1 C3.34 3.31 2.68 5.62 2 8 C0.35 8 -1.3 8 -3 8 C-1.125 1.125 -1.125 1.125 0 0 Z " fill="#375C94" transform="translate(237,124)"/>
<path d="M0 0 C0.66 0 1.32 0 2 0 C3.59789351 4.95346987 2.28306814 9.13282415 1 14 C0.67 14 0.34 14 0 14 C-0.1953125 11.94921875 -0.390625 9.8984375 -0.5859375 7.84765625 C-0.72257812 7.23792969 -0.85921875 6.62820312 -1 6 C-1.66 5.67 -2.32 5.34 -3 5 C-1.625 2.5 -1.625 2.5 0 0 Z " fill="#395D98" transform="translate(371,105)"/>
<path d="M0 0 C0.66 0.66 1.32 1.32 2 2 C1.01 3.98 0.02 5.96 -1 8 C-2.32 8 -3.64 8 -5 8 C-4.34 5.69 -3.68 3.38 -3 1 C-2.34 1.33 -1.68 1.66 -1 2 C-0.67 1.34 -0.34 0.68 0 0 Z " fill="#325893" transform="translate(405,124)"/>
<path d="M0 0 C1.65 0 3.3 0 5 0 C5 1.65 5 3.3 5 5 C4.01 5 3.02 5 2 5 C1.67 5.66 1.34 6.32 1 7 C0.34 6.67 -0.32 6.34 -1 6 C-0.67 4.02 -0.34 2.04 0 0 Z " fill="#244C8C" transform="translate(413,101)"/>
<path d="M0 0 C0.66 0 1.32 0 2 0 C2 0.99 2 1.98 2 3 C-3.61 3 -9.22 3 -15 3 C-15 2.67 -15 2.34 -15 2 C-10.90574741 0.94341869 -7.08253611 0.951456 -2.890625 1.0625 C-0.98736043 1.21514645 -0.98736043 1.21514645 0 0 Z " fill="#184792" transform="translate(424,120)"/>
<path d="M0 0 C2 2 2 2 2.1953125 4.1640625 C2.17210937 4.97617188 2.14890625 5.78828125 2.125 6.625 C2.10695313 7.44226563 2.08890625 8.25953125 2.0703125 9.1015625 C2.03550781 10.04128906 2.03550781 10.04128906 2 11 C0.68 10.67 -0.64 10.34 -2 10 C-1.34 6.7 -0.68 3.4 0 0 Z " fill="#224D90" transform="translate(442,121)"/>
<path d="M0 0 C0.90105469 0.01804688 1.80210938 0.03609375 2.73046875 0.0546875 C3.41753906 0.07789063 4.10460937 0.10109375 4.8125 0.125 C4.8125 0.785 4.8125 1.445 4.8125 2.125 C-3.61607143 3.41071429 -3.61607143 3.41071429 -8.1875 2.125 C-4.87379 -0.08414 -3.8428979 -0.09981553 0 0 Z " fill="#EEF0EC" transform="translate(77.1875,59.875)"/>
<path d="M0 0 C1.6396875 0.0928125 1.6396875 0.0928125 3.3125 0.1875 C2.9825 1.1775 2.6525 2.1675 2.3125 3.1875 C-0.6575 3.1875 -3.6275 3.1875 -6.6875 3.1875 C-3.6875 0.1875 -3.6875 0.1875 0 0 Z " fill="#1B478E" transform="translate(384.6875,100.8125)"/>
<path d="M0 0 C0.33 1.32 0.66 2.64 1 4 C-2.63 4 -6.26 4 -10 4 C-6.86268382 1.90845588 -3.85464592 0 0 0 Z " fill="#EBEEF1" transform="translate(255,116)"/>
<path d="M0 0 C1.74627478 2.61941217 2.38722388 4.03824877 3 7 C1.02 7.99 1.02 7.99 -1 9 C-1.66 7.02 -2.32 5.04 -3 3 C-2.01 3 -1.02 3 0 3 C0 2.01 0 1.02 0 0 Z " fill="#3A5D96" transform="translate(256,109)"/>
<path d="M0 0 C2.15377564 2.62198774 3.40072174 4.64404172 4 8 C2.35 8 0.7 8 -1 8 C-1 7.01 -1 6.02 -1 5 C-0.34 5.33 0.32 5.66 1 6 C0.649375 5.38125 0.29875 4.7625 -0.0625 4.125 C-0.371875 3.42375 -0.68125 2.7225 -1 2 C-0.67 1.34 -0.34 0.68 0 0 Z " fill="#496A9C" transform="translate(428,124)"/>
<path d="M0 0 C0.99 0.33 1.98 0.66 3 1 C2.67 1.66 2.34 2.32 2 3 C1.34 3 0.68 3 0 3 C0 7.62 0 12.24 0 17 C-0.33 17 -0.66 17 -1 17 C-1.02684679 14.35409986 -1.04676357 11.70846904 -1.0625 9.0625 C-1.07087891 8.30775391 -1.07925781 7.55300781 -1.08789062 6.77539062 C-1.09652441 4.85005687 -1.05224333 2.92464419 -1 1 C-0.67 0.67 -0.34 0.34 0 0 Z " fill="#EFF2F2" transform="translate(26,99)"/>
<path d="M0 0 C1.98 0 3.96 0 6 0 C6 1.65 6 3.3 6 5 C3.03 4.505 3.03 4.505 0 4 C0.33 3.34 0.66 2.68 1 2 C0.67 1.34 0.34 0.68 0 0 Z " fill="#1C4488" transform="translate(116,109)"/>
<path d="M0 0 C2.60444348 -0.05394705 5.20776998 -0.09364469 7.8125 -0.125 C8.55048828 -0.14175781 9.28847656 -0.15851563 10.04882812 -0.17578125 C13.91246426 -0.21074628 15.70903668 -0.19397555 19 2 C17.35 2.33 15.7 2.66 14 3 C14 2.34 14 1.68 14 1 C9.38 1 4.76 1 0 1 C0 0.67 0 0.34 0 0 Z " fill="#2E5191" transform="translate(441,101)"/>
<path d="M0 0 C3 3 3 3 3.1875 6.6875 C3.125625 7.780625 3.06375 8.87375 3 10 C2.01 10 1.02 10 0 10 C0 6.7 0 3.4 0 0 Z " fill="#EDF0F3" transform="translate(111,106)"/>
<path d="M0 0 C0 2.31 0 4.62 0 7 C-0.99 7 -1.98 7 -3 7 C-3 5.02 -3 3.04 -3 1 C-1 0 -1 0 0 0 Z " fill="#18488E" transform="translate(371,110)"/>
<path d="M0 0 C2 1 2 1 2.6875 2.75 C3.05570141 5.40105019 2.61356613 7.40938747 2 10 C2 10.66 2 11.32 2 12 C1.34 12 0.68 12 0 12 C0 8.04 0 4.08 0 0 Z " fill="#35548A" transform="translate(27,104)"/>
<path d="M0 0 C2.25 0.25 2.25 0.25 4 1 C3.67 1.99 3.34 2.98 3 4 C0.69 4 -1.62 4 -4 4 C-2.25 1.9375 -2.25 1.9375 0 0 Z " fill="#EDEFEA" transform="translate(121,47)"/>
<path d="M0 0 C1.98 0.66 3.96 1.32 6 2 C6.33 1.34 6.66 0.68 7 0 C7.66 0.66 8.32 1.32 9 2 C6.03 2.66 3.06 3.32 0 4 C0 2.68 0 1.36 0 0 Z " fill="#A2CB55" transform="translate(104,49)"/>
<path d="M0 0 C1.28485596 5.13942384 0.22194431 6.37835584 -2 11 C-2.66 10.01 -3.32 9.02 -4 8 C-2.68 5.36 -1.36 2.72 0 0 Z " fill="#BFCEDA" transform="translate(39,103)"/>
<path d="M0 0 C1.65 0 3.3 0 5 0 C5 1.65 5 3.3 5 5 C4.67 4.34 4.34 3.68 4 3 C2.68 3 1.36 3 0 3 C0 2.01 0 1.02 0 0 Z " fill="#1B488D" transform="translate(247,102)"/>
</svg>
